<svg width="50" height="50" viewBox="0 0 50 50" fill="none" xmlns="http://www.w3.org/2000/svg">
<g id="logo-javascript.35328c60 1" clip-path="url(#clip0_198_10647)">
<path id="Vector" d="M0 0H50V50H0V0Z" fill="#F0DB4F"/>
<path id="Vector_2" d="M45.9078 38.0751C45.5419 35.7937 44.0542 33.8783 39.6483 32.0913C38.1179 31.3878 36.4116 30.8841 35.9031 29.7243C35.7225 29.0494 35.6987 28.6692 35.8128 28.2605C36.1407 26.9344 37.7234 26.5209 38.9782 26.9011C39.7861 27.1721 40.5514 27.7947 41.0124 28.788C43.1702 27.3907 43.1654 27.4002 44.6721 26.4402C44.1207 25.5847 43.8261 25.1901 43.4649 24.8242C42.1673 23.3746 40.3993 22.6284 37.5713 22.6854C37.0818 22.7472 36.5875 22.8137 36.0979 22.8755C34.6864 23.232 33.3413 23.9734 32.5523 24.9668C30.1854 27.6521 30.8603 32.3527 33.7405 34.2871C36.578 36.4164 40.7462 36.9012 41.2785 38.8926C41.7966 41.3309 39.4868 42.1198 37.1911 41.8394C35.4991 41.4877 34.5581 40.6274 33.5409 39.0637C31.6683 40.1474 31.6683 40.1474 29.7434 41.2548C30.1997 42.2529 30.6797 42.7044 31.4449 43.5694C35.0666 47.2434 44.1303 47.0628 45.7558 41.502C45.8223 41.3118 46.2596 40.038 45.9078 38.0751ZM27.1816 22.98H22.5048C22.5048 27.02 22.4858 31.0314 22.4858 35.0713C22.4858 37.6426 22.6189 40 22.2006 40.7224C21.5162 42.1435 19.7434 41.9677 18.9354 41.692C18.1132 41.288 17.6949 40.7129 17.2102 39.9002C17.0771 39.6673 16.9773 39.4867 16.9439 39.4724C15.675 40.2472 14.4107 41.0266 13.1417 41.8013C13.7738 43.0989 14.7054 44.2253 15.8983 44.9572C17.6806 46.0266 20.0761 46.3545 22.5809 45.7794C24.2111 45.3041 25.6179 44.3203 26.3546 42.8232C27.4192 40.8603 27.1911 38.4838 27.1816 35.8555C27.2054 31.5684 27.1816 27.2814 27.1816 22.98Z" fill="#323330"/>
</g>
<defs>
<clipPath id="clip0_198_10647">
<rect width="50" height="50" fill="white"/>
</clipPath>
</defs>
</svg>
