<svg width="50" height="50" viewBox="0 0 50 50" fill="none" xmlns="http://www.w3.org/2000/svg">
<g id="1ae6195242c630ef839faba4f7bd40c945f8baff-1667x2500 1" clip-path="url(#clip0_198_10660)">
<path id="path0_fill" d="M12.5025 50C19.4011 50 25 46.2667 25 41.6667V33.3333H12.5025C5.60388 33.3333 0.00500488 37.0667 0.00500488 41.6667C0.00500488 46.2667 5.60388 50 12.5025 50Z" fill="#0ACF83"/>
<path id="path1_fill" d="M0.00500488 25C0.00500488 20.4 5.60388 16.6667 12.5025 16.6667H25V33.3333H12.5025C5.60388 33.3333 0.00500488 29.6 0.00500488 25Z" fill="#A259FF"/>
<path id="path1_fill_1_" d="M0.00500488 8.33339C0.00500488 3.73339 5.60388 6.10352e-05 12.5025 6.10352e-05H25V16.6667H12.5025C5.60388 16.6667 0.00500488 12.9334 0.00500488 8.33339Z" fill="#F24E1E"/>
<path id="path2_fill" d="M25 6.10352e-05H37.4975C44.3961 6.10352e-05 49.995 3.73339 49.995 8.33339C49.995 12.9334 44.3961 16.6667 37.4975 16.6667H25V6.10352e-05Z" fill="#FF7262"/>
<path id="path3_fill" d="M49.995 25C49.995 29.6 44.3961 33.3333 37.4975 33.3333C30.5989 33.3333 25 29.6 25 25C25 20.4 30.5989 16.6667 37.4975 16.6667C44.3961 16.6667 49.995 20.4 49.995 25Z" fill="#1ABCFE"/>
</g>
<defs>
<clipPath id="clip0_198_10660">
<rect width="50" height="50" fill="white"/>
</clipPath>
</defs>
</svg>
