<svg xmlns="http://www.w3.org/2000/svg" width="189" height="37" viewBox="0 0 189 37" fill="none">
  <path d="M187.484 1.18184C187.484 1.75684 187.76 2.22729 188.075 2.22729C188.39 2.22729 188.666 1.75684 188.666 1.18184C188.666 0.60684 188.39 0.136386 188.075 0.136386C187.76 0.136386 187.484 0.60684 187.484 1.18184Z" fill="white"/>
  <path d="M178.816 3.0114C178.816 4.7364 178.895 4.84094 180.195 4.84094C181.495 4.84094 181.574 4.7364 181.574 3.0114C181.574 1.2864 181.495 1.18185 180.195 1.18185C178.895 1.18185 178.816 1.2864 178.816 3.0114Z" fill="white"/>
  <path d="M183.229 5.99091C183.308 6.775 183.662 7.24546 184.253 7.35C184.962 7.50682 185.12 7.29773 185.12 6.2C185.12 5.10228 184.923 4.84091 184.096 4.84091C183.268 4.84091 183.111 5.05 183.229 5.99091Z" fill="white"/>
  <path d="M176.058 7.14093C176.058 8.65684 176.216 8.91821 177.201 9.17957C178.304 9.4932 178.343 9.59775 178.619 13.7273C178.856 17.1773 179.092 18.275 179.919 19.5818C180.786 20.9409 180.826 21.2023 180.313 21.6205C179.447 22.2478 178.895 24.4432 178.619 28.5205C178.383 31.8659 178.265 32.1273 177.201 32.65C176.255 33.0682 176.058 33.4341 176.058 34.95C176.058 36.6227 176.137 36.7273 177.437 36.7273C180.668 36.7273 181.968 34.375 181.968 28.4682C181.968 25.175 182.441 23.8159 183.781 23.1364C184.529 22.7182 184.726 22.2478 184.726 20.7841C184.726 19.3205 184.569 18.9546 183.978 18.9546C182.993 18.9546 181.968 17.0205 181.968 15.1909C181.968 14.25 181.771 13.7273 181.377 13.7273C181.023 13.7273 180.786 13.2568 180.786 12.4205C180.786 11.5841 181.023 11.1137 181.377 11.1137C181.85 11.1137 181.929 10.7477 181.732 9.65002C181.141 6.40911 180.077 5.36366 177.398 5.36366C176.137 5.36366 176.058 5.4682 176.058 7.14093ZM180.392 8.23866C180.392 8.65684 180.116 9.02275 179.801 9.02275C179.486 9.02275 179.21 8.65684 179.21 8.23866C179.21 7.82048 179.486 7.45457 179.801 7.45457C180.116 7.45457 180.392 7.82048 180.392 8.23866Z" fill="white"/>
  <path d="M25.3924 7.03641C25.0378 7.66368 24.762 8.65686 24.762 9.17959C24.762 10.0682 24.368 10.1205 18.3004 9.96368C13.2572 9.85913 11.9176 9.96368 12.0358 10.4341C12.154 10.8523 11.957 11.1137 11.563 11.1137C11.1296 11.1137 10.972 10.8523 11.1296 10.3296C11.2478 9.91141 11.169 9.5455 10.9326 9.5455C10.6962 9.5455 10.578 9.96368 10.6568 10.4341C10.775 11.2182 11.4842 11.2705 17.7882 11.166L24.762 11.0614V13.675V16.341H21.2948C19.2854 16.341 17.6306 16.0796 17.3942 15.766C16.8426 15.0341 16.094 15.6091 16.094 16.6546C16.094 17.6478 17.1972 18.2228 17.7882 17.4387C18.0246 17.125 19.6006 16.8637 21.4918 16.8637H24.762V19.7387V22.6137H14.3604C5.61363 22.6137 3.88003 22.5091 3.48603 21.8296C2.46163 20.2091 0.728027 21.2546 0.728027 23.5023C0.728027 25.2273 2.10703 26.0637 3.32843 25.0182C4.11643 24.2864 5.69243 24.1819 14.3998 24.2864L24.565 24.4432L24.6832 27.0569L24.8014 29.6705L23.6982 28.2591C22.6344 26.9523 22.398 26.9 17.276 26.691C12.8238 26.5864 11.957 26.6387 11.957 27.3182C11.957 27.9455 12.8238 28.05 17.2366 27.8932L22.4768 27.7364L23.6194 29.2C24.4074 30.1932 24.762 31.1864 24.762 32.2841C24.762 33.1728 25.0378 34.4273 25.3924 35.0546L25.9834 36.2046H42.4526C57.8974 36.2046 58.9612 36.1523 59.5522 35.2637C61.0888 33.016 59.9068 30.6114 57.07 30.35C55.7698 30.2455 55.2576 29.9319 55.1788 29.3046C55.0606 28.4682 55.494 28.3637 59.828 28.3637C65.541 28.3637 66.8806 27.6841 66.92 24.9137C66.92 22.7705 65.7774 22.1432 61.601 21.9864C58.2126 21.8296 57.661 21.725 57.5428 20.8887C57.4246 20.1046 57.7398 20 59.7098 20C62.4678 20 63.768 19.0069 63.768 16.916C63.768 14.3023 62.8224 13.7796 58.055 13.6228C54.509 13.5182 53.721 13.3091 53.721 12.6819C53.721 12.0023 54.9424 11.8978 62.0738 11.741L70.4266 11.6364L71.2146 10.2773C71.9632 8.9705 71.9632 7.92504 71.1358 6.51368C70.5842 5.57277 39.5764 5.57277 39.8128 6.51368C39.9704 7.03641 43.5164 7.2455 55.1394 7.45459C68.2202 7.66368 70.269 7.8205 70.269 8.50004C70.269 9.17959 69.0476 9.28413 61.9162 9.44095L53.5634 9.5455L52.7754 10.9569C51.7116 12.6819 51.751 12.9955 52.933 14.5114C53.8392 15.7137 54.1544 15.8182 58.055 15.8182C61.9162 15.8182 62.192 15.8705 62.192 16.8637C62.192 17.8046 61.9162 17.9091 59.828 17.9091C57.9762 17.9091 57.3064 18.1182 56.676 18.9546C55.6122 20.366 55.691 21.8296 56.9124 23.0841C57.8186 24.025 58.5278 24.1819 61.6798 24.1819C65.0288 24.1819 65.3834 24.2864 65.2652 25.0705C65.147 25.9069 64.4772 26.0637 59.828 26.2728C56.9124 26.4296 54.2726 26.7432 54.0362 26.9523C53.3664 27.5273 53.3664 30.716 54.0362 31.3955C54.312 31.7091 55.4152 32.0228 56.479 32.1273C58.1338 32.2841 58.449 32.441 58.449 33.3296C58.449 34.375 58.1338 34.375 43.28 34.5319C34.9272 34.5841 27.717 34.5319 27.2442 34.375C26.338 34.1137 26.338 34.0614 26.338 23.6591V13.2046H35.4394C43.871 13.2046 44.5014 13.1523 44.3832 12.2637C44.265 11.4796 43.477 11.375 35.2818 11.2182L26.2986 11.1137L26.4168 9.38868L26.535 7.71595L32.3662 7.55913C37.173 7.45459 38.158 7.29777 38.158 6.6705C38.158 5.99095 37.173 5.88641 32.0904 5.88641C26.2198 5.88641 25.9834 5.93868 25.3924 7.03641ZM13.336 27.3182C13.336 27.5796 13.0602 27.841 12.745 27.841C12.4298 27.841 12.154 27.5796 12.154 27.3182C12.154 27.0046 12.4298 26.7955 12.745 26.7955C13.0602 26.7955 13.336 27.0046 13.336 27.3182Z" fill="white"/>
  <path d="M77.5581 9.54549C77.5581 10.1205 77.8339 10.5909 78.1491 10.5909C79.0159 10.5909 79.0159 24.0773 78.1491 24.4955C77.8339 24.7046 77.5581 25.1228 77.5581 25.5409C77.5581 26.1159 78.2279 26.2728 80.3161 26.2728C82.7983 26.2728 83.0741 26.1682 83.0741 25.2273C83.0741 24.5478 82.7983 24.1819 82.2861 24.1819C81.6163 24.1819 81.4981 23.8159 81.4981 21.6205C81.4981 20.1569 81.6557 18.9023 81.8527 18.7455C82.4437 18.2228 83.3893 18.9546 83.5863 20.1046C84.0197 22.1955 84.8471 20.7841 84.9653 17.7523C85.0835 15.0341 85.0047 14.7728 84.2561 14.7728C83.7439 14.7728 83.4681 15.1387 83.4681 15.8182C83.4681 16.6023 83.1923 16.8637 82.4831 16.8637C81.5769 16.8637 81.4981 16.6546 81.4981 14.5637C81.4981 11.0614 81.7345 10.5909 83.5469 10.5909C84.9259 10.5909 85.1623 10.8 85.5563 12.1591C86.2655 14.6682 87.0141 14.1455 87.0141 11.1137V8.50004H82.2861C77.8339 8.50004 77.5581 8.55231 77.5581 9.54549Z" fill="white"/>
  <path d="M140.204 9.49322C140.204 10.1205 140.441 10.5909 140.795 10.5909C141.307 10.5909 141.386 11.6887 141.386 17.3864C141.386 22.9796 141.268 24.2864 140.795 24.4955C140.48 24.7046 140.204 25.1228 140.204 25.5409C140.204 26.1159 140.992 26.2728 143.868 26.2728C149.857 26.2205 152.418 23.8159 152.694 17.9614C152.812 15.6614 152.655 14.6159 151.945 12.9955C150.566 9.9114 148.675 8.81367 144.065 8.60458C140.362 8.39549 140.204 8.39549 140.204 9.49322ZM148.439 12.0546C149.739 13.7796 150.251 17.0728 149.66 20.0523C149.069 22.9273 147.927 24.1819 145.838 24.1819H144.144V17.7523C144.144 14.1978 144.262 11.1137 144.42 10.9569C145.09 10.0159 147.414 10.6432 148.439 12.0546Z" fill="white"/>
  <path d="M27.5989 9.59776C27.6777 9.91139 27.9141 10.1205 28.1111 10.1205C28.3081 10.1205 28.5445 9.91139 28.6233 9.59776C28.7021 9.28412 28.4657 9.02276 28.1111 9.02276C27.7565 9.02276 27.5201 9.28412 27.5989 9.59776Z" fill="white"/>
  <path d="M29.9629 9.59776C30.0417 9.91139 30.2781 10.1205 30.4751 10.1205C30.6721 10.1205 30.9085 9.91139 30.9873 9.59776C31.0661 9.28412 30.8297 9.02276 30.4751 9.02276C30.1205 9.02276 29.8841 9.28412 29.9629 9.59776Z" fill="white"/>
  <path d="M32.3267 9.59776C32.4055 9.91139 32.6419 10.1205 32.8389 10.1205C33.0359 10.1205 33.2723 9.91139 33.3511 9.59776C33.4299 9.28412 33.1935 9.02276 32.8389 9.02276C32.4843 9.02276 32.2479 9.28412 32.3267 9.59776Z" fill="white"/>
  <path d="M183.229 11.4796C183.308 12.0023 183.623 12.4205 183.938 12.4205C184.253 12.4205 184.568 12.0023 184.647 11.4796C184.726 10.8523 184.529 10.5909 183.938 10.5909C183.347 10.5909 183.15 10.8523 183.229 11.4796Z" fill="white"/>
  <path d="M46.5108 11.7932C45.8016 12.891 46.3138 13.2046 48.6778 13.2046C50.4902 13.2046 50.8054 13.0478 50.6872 12.2637C50.5296 11.1137 47.1806 10.6955 46.5108 11.7932Z" fill="white"/>
  <path d="M90.6388 14.0932C88.984 15.1909 88.196 17.1773 88.196 20.4182C88.196 23.6068 89.181 25.4887 91.3086 26.325C93.0816 27.0046 95.1698 26.325 96.273 24.7046C97.1792 23.3455 96.667 22.3523 95.5638 23.3977C93.5938 25.2273 90.954 23.8159 90.954 20.8887C90.954 19.4773 90.954 19.4773 93.909 19.4773C96.6276 19.4773 96.864 19.3727 96.864 18.4318C96.864 16.4977 95.7608 14.4068 94.4606 13.7796C92.8058 12.9955 92.1754 13.0477 90.6388 14.0932ZM94.106 16.2887C94.697 17.8568 94.6576 17.9091 92.727 17.9091C91.742 17.9091 90.954 17.7523 90.954 17.5955C90.954 16.55 91.8996 15.2955 92.727 15.2955C93.2786 15.2955 93.8696 15.7137 94.106 16.2887Z" fill="white"/>
  <path d="M103.286 14.25C102.222 15.0864 101.986 15.1387 101.986 14.5114C101.986 13.6228 101.671 13.5705 99.5432 14.0409C97.9278 14.4069 97.4944 15.7137 98.834 16.1841C99.5038 16.4455 99.622 16.9159 99.622 19.6864C99.622 21.725 99.425 23.2932 99.031 23.9728C97.9672 25.8546 98.2824 26.2728 100.804 26.2728C102.892 26.2728 103.168 26.1682 103.168 25.2273C103.168 24.6523 102.892 24.1819 102.577 24.1819C101.671 24.1819 101.75 18.3796 102.695 16.8114C103.404 15.7137 103.483 15.7137 104.35 16.4978C104.823 16.9159 105.493 17.1773 105.768 17.0205C106.517 16.6546 106.478 13.9364 105.69 13.5182C104.783 13.0478 104.665 13.1 103.286 14.25Z" fill="white"/>
  <path d="M112.348 13.9887C111.56 14.4069 111.048 14.5114 110.969 14.1455C110.733 13.3091 107.108 14.1978 107.108 15.1387C107.108 15.5569 107.463 16.0273 107.896 16.1841C108.566 16.4455 108.684 16.9159 108.684 19.6864C108.684 21.725 108.487 23.2932 108.093 23.9728C107.029 25.8546 107.344 26.2728 109.866 26.2728C111.954 26.2728 112.23 26.1682 112.23 25.2273C112.23 24.6523 111.954 24.1819 111.639 24.1819C110.733 24.1819 110.772 16.6023 111.678 16.1319C112.979 15.5046 113.845 15.8182 114.2 17.1773C114.791 19.2682 114.673 23.45 114.003 24.1819C112.742 25.5932 113.333 26.2728 115.776 26.2728C117.864 26.2728 118.14 26.1682 118.14 25.2273C118.14 24.6523 117.864 24.1819 117.549 24.1819C117.076 24.1819 116.958 23.3455 116.958 20C116.958 16.1841 116.84 15.6614 115.973 14.5114C114.909 13.0478 114.161 12.9432 112.348 13.9887Z" fill="white"/>
  <path d="M122.277 13.7273C119.756 15.0864 118.534 20.1568 119.913 23.6068C121.174 26.9 124.799 27.6318 127.084 25.0182C128.345 23.5546 128.03 22.1432 126.69 23.3978C125.39 24.6 123.42 24.3909 122.711 23.0318C122.356 22.4046 122.08 21.3068 122.08 20.6796C122.08 19.5296 122.238 19.4773 125.035 19.4773C127.951 19.4773 127.99 19.4773 127.99 18.1182C127.99 16.1318 127.281 14.7728 125.823 13.9364C124.326 13.1 123.459 13.0478 122.277 13.7273ZM125.153 15.9228C126.138 17.2296 125.666 17.9091 123.853 17.9091C121.923 17.9091 121.883 17.8568 122.474 16.2887C122.947 15.1909 124.444 14.9818 125.153 15.9228Z" fill="white"/>
  <path d="M156.831 14.0932C155.176 15.1909 154.388 17.1773 154.388 20.4182C154.388 23.6068 155.373 25.4887 157.501 26.325C159.274 27.0046 161.362 26.325 162.465 24.7046C163.371 23.3455 162.859 22.3523 161.756 23.3977C159.786 25.2273 157.146 23.8159 157.146 20.8887C157.146 19.4773 157.146 19.4773 160.101 19.4773C162.82 19.4773 163.056 19.3727 163.056 18.4318C163.056 16.4977 161.953 14.4068 160.653 13.7796C158.998 12.9955 158.367 13.0477 156.831 14.0932ZM160.298 16.2887C160.889 17.8568 160.85 17.9091 158.919 17.9091C157.934 17.9091 157.146 17.7523 157.146 17.5955C157.146 16.55 158.092 15.2955 158.919 15.2955C159.471 15.2955 160.062 15.7137 160.298 16.2887Z" fill="white"/>
  <path d="M68.102 14.7727C67.1958 15.975 67.117 17.3341 67.8656 18.6932C68.2596 19.3727 69.0476 19.7386 70.7812 19.8955C72.9482 20.1046 73.2634 20 74.209 18.7455C74.9576 17.7523 75.1546 17.0727 74.997 16.1841C74.5636 14.3546 73.618 13.7273 71.1752 13.7273C69.4022 13.7273 68.693 13.9886 68.102 14.7727ZM73.421 16.8636C73.421 17.4909 72.9088 17.6477 71.254 17.6477C69.481 17.6477 69.087 17.4909 68.9688 16.7068C68.8506 15.8705 69.087 15.7659 71.1358 15.9227C72.8694 16.0273 73.421 16.2886 73.421 16.8636Z" fill="white"/>
  <path d="M128.778 14.5114C128.778 14.8773 129.014 15.4523 129.29 15.6614C129.999 16.2886 133.506 26.0636 133.506 27.475C133.506 28.1545 133.23 29.1477 132.915 29.7227C132.442 30.5068 132.285 30.5591 131.969 30.0364C131.497 29.0432 130.196 29.4614 130.039 30.6114C129.842 31.8659 130.669 33.0682 131.694 33.0682C133.151 33.0682 134.136 31.0295 136.106 23.7114C137.131 19.8432 138.313 16.3409 138.707 15.8704C139.928 14.4591 139.574 13.7273 137.643 13.7273C136.146 13.7273 135.87 13.8841 135.87 14.7204C135.87 15.2954 136.067 15.8182 136.264 15.9227C136.5 16.0273 136.343 17.4386 135.791 19.4773L134.924 22.875L134.018 20C133.348 18.0136 133.112 16.6545 133.309 15.4523L133.545 13.7273H131.142C129.33 13.7273 128.778 13.8841 128.778 14.5114Z" fill="white"/>
  <path d="M163.844 14.7728C163.844 15.3478 164.002 15.8182 164.159 15.8182C164.356 15.8182 165.262 18.1705 166.208 21.0455C167.666 25.3319 168.099 26.2728 168.808 26.2728C169.518 26.2728 169.872 25.5932 170.739 22.7182C171.291 20.7841 172.197 18.1705 172.748 16.9159C173.261 15.6614 173.694 14.4591 173.694 14.1978C173.694 13.9364 172.906 13.7273 171.921 13.7273C170.621 13.7273 170.148 13.9364 170.148 14.5114C170.148 14.8773 170.384 15.4523 170.66 15.6614C171.054 15.975 170.975 16.7069 170.306 19.2159L169.439 22.3523L168.572 19.7387C167.981 17.9614 167.823 16.6023 167.981 15.4523L168.217 13.7273H166.011C164.12 13.7273 163.844 13.8319 163.844 14.7728Z" fill="white"/>
  <path d="M28.5444 17.9614C27.7564 18.85 27.126 19.8432 27.126 20.2091C27.126 20.9932 29.5688 24.1818 30.1992 24.1818C30.9478 24.1818 30.7508 22.5614 29.884 21.3068L29.096 20.1568L29.884 19.2159C30.3174 18.6932 30.672 17.9614 30.672 17.5955C30.672 16.2364 29.884 16.3409 28.5444 17.9614Z" fill="white"/>
  <path d="M40.719 16.8114C40.3644 17.6477 40.8372 18.4318 41.7434 18.4318C42.295 18.4318 42.492 18.1182 42.4132 17.5432C42.2556 16.4977 41.113 16.0273 40.719 16.8114Z" fill="white"/>
  <path d="M32.642 19.5818C31.4994 22.3 31.1448 24.1818 31.7752 24.1818C32.5238 24.1818 35.006 18.9023 35.006 17.3864C35.006 15.975 33.7058 17.1773 32.642 19.5818Z" fill="white"/>
  <path d="M35.4001 17.2819C35.4001 17.5432 35.8335 18.275 36.3851 18.9546L37.3701 20.2091L36.3063 21.6728C35.4789 22.8228 35.3607 23.2932 35.7153 23.7637C36.0699 24.2341 36.5033 23.9728 37.5671 22.6137C38.3157 21.6205 38.9461 20.6273 38.9461 20.3137C38.9461 19.425 36.8579 16.8637 36.1093 16.8637C35.7153 16.8637 35.4001 17.0728 35.4001 17.2819Z" fill="white"/>
  <path d="M43.5559 17.1773C42.8861 18.0659 43.9893 18.4318 47.2595 18.4318C50.0963 18.4318 50.7661 18.275 50.7661 17.6477C50.7661 17.0205 50.1357 16.8636 47.2989 16.8636C45.3683 16.8636 43.6741 17.0205 43.5559 17.1773Z" fill="white"/>
  <path d="M40.6008 21.9341C40.719 22.7182 41.2706 22.875 44.0286 23.0318C47.1806 23.1887 48.6778 22.6137 48.1656 21.5159C48.0474 21.2546 46.2744 21.0455 44.2256 21.0455C40.8372 21.0455 40.4826 21.15 40.6008 21.9341Z" fill="white"/>
  <path d="M49.3476 21.6205C48.9536 22.4569 49.9386 23.1364 51.5934 23.1364C52.9724 23.1364 54.1938 22.091 53.6422 21.4114C53.2088 20.8364 49.6628 20.9932 49.3476 21.6205Z" fill="white"/>
  <path d="M29.5688 26.6387C29.687 27.475 30.3174 27.5796 35.991 27.5796C41.6646 27.5796 42.295 27.475 42.4132 26.6387C42.5314 25.8023 42.0192 25.75 35.991 25.75C29.9628 25.75 29.4506 25.8023 29.5688 26.6387Z" fill="white"/>
  <path d="M43.8711 26.2727C43.3195 27.475 44.3833 27.8932 47.4565 27.7364C49.8993 27.6318 50.5691 27.4227 50.5691 26.7955C50.5691 26.1682 49.8993 25.9591 47.3383 25.8546C45.2895 25.75 44.0287 25.9068 43.8711 26.2727Z" fill="white"/>
  <path d="M29.7658 30.2455C29.6082 30.4545 29.49 30.9773 29.49 31.3432C29.49 31.9182 30.081 32.0227 31.9722 31.9182C33.824 31.8136 34.415 31.5523 34.415 30.9773C34.415 30.4023 33.8634 30.1409 32.248 30.0364C31.0266 29.9318 29.9234 30.0364 29.7658 30.2455Z" fill="white"/>
  <path d="M35.5971 30.4023C35.1243 31.4478 35.8335 32.0228 37.4095 32.0228C38.7097 32.0228 38.9855 31.8659 38.8673 31.0819C38.7097 30.0364 36.0305 29.5137 35.5971 30.4023Z" fill="white"/>
  <path d="M39.7341 30.9773C39.7341 32.0227 39.9311 32.0227 45.1713 31.9182C49.6629 31.7614 50.5691 31.6046 50.5691 30.9773C50.5691 30.35 49.6629 30.1932 45.1713 30.0364C39.9311 29.9318 39.7341 29.9318 39.7341 30.9773Z" fill="white"/>
  <path d="M63.2953 31.0295C62.3103 31.7614 62.3497 34.95 63.3347 35.6818C64.6743 36.6227 68.2991 36.3091 69.0083 35.2636C69.8357 34.0614 69.8751 32.3364 69.0477 31.2909C68.3385 30.35 64.3985 30.1409 63.2953 31.0295ZM67.9051 33.3295C67.9051 34.1659 67.5899 34.4273 66.4079 34.5318C64.5955 34.7409 63.5317 33.8523 64.2409 32.7023C64.5167 32.2318 65.2653 32.0227 66.2897 32.1273C67.5899 32.2318 67.9051 32.4932 67.9051 33.3295Z" fill="white"/>
</svg>
